<svg width="30" height="30" viewBox="0 0 30 30" fill="none" xmlns="http://www.w3.org/2000/svg">
<g clip-path="url(#clip0_311_398)">
<path d="M15 29.3816C22.9427 29.3816 29.3815 22.9428 29.3815 15.0001C29.3815 7.05746 22.9427 0.618652 15 0.618652C7.05737 0.618652 0.618561 7.05746 0.618561 15.0001C0.618561 22.9428 7.05737 29.3816 15 29.3816Z" fill="#666666"/>
<path fill-rule="evenodd" clip-rule="evenodd" d="M19.0204 7.66943H10.9796C9.18265 7.66943 7.71201 9.14008 7.71201 10.937V19.0632C7.71201 20.8601 9.18265 22.3308 10.9796 22.3308H19.0204C20.8174 22.3308 22.288 20.8601 22.288 19.0632V10.937C22.288 9.14008 20.8174 7.66943 19.0204 7.66943ZM20.9378 18.3103C20.9378 19.7709 19.7382 20.9705 18.2776 20.9705H11.7274C10.2618 20.9705 9.06722 19.7709 9.06722 18.3103V11.6949C9.06722 10.2293 10.2618 9.03468 11.7274 9.03468H18.2776C19.7382 9.03468 20.9378 10.2293 20.9378 11.6949V18.3103Z" fill="white"/>
<path d="M15 11.3835C13.0074 11.3835 11.3861 13.0098 11.3861 15.0025C11.3861 16.9951 13.0073 18.6163 15 18.6163C16.9926 18.6163 18.6189 16.9951 18.6189 15.0025C18.6189 13.0098 16.9927 11.3835 15 11.3835ZM15 17.3966C13.6799 17.3966 12.6058 16.3225 12.6058 15.0025C12.6058 13.6824 13.6799 12.6083 15 12.6083C16.3201 12.6083 17.3942 13.6824 17.3942 15.0025C17.3942 16.3225 16.3201 17.3966 15 17.3966Z" fill="white"/>
<path fill-rule="evenodd" clip-rule="evenodd" d="M18.6216 11.7334C19.0332 11.7334 19.3645 11.4021 19.3645 10.9955C19.3645 10.584 19.0332 10.2527 18.6216 10.2527C18.2151 10.2527 17.8838 10.584 17.8838 10.9955C17.8838 11.4021 18.2151 11.7334 18.6216 11.7334Z" fill="white"/>
</g>
<defs>
<clipPath id="clip0_311_398">
<rect width="30" height="30" fill="white"/>
</clipPath>
</defs>
</svg>
