<svg width="29" height="29" viewBox="0 0 29 29" fill="none" xmlns="http://www.w3.org/2000/svg">
<path fill-rule="evenodd" clip-rule="evenodd" d="M28.7629 14.3815C28.7629 22.3241 22.3241 28.7629 14.3815 28.7629C6.4388 28.7629 0 22.3241 0 14.3815C0 6.4388 6.4388 0 14.3815 0C22.3241 0 28.7629 6.4388 28.7629 14.3815ZM18.6899 7.38135H10.649C8.85208 7.38135 7.38144 8.85199 7.38144 10.6489V18.7751C7.38144 20.572 8.85208 22.0427 10.649 22.0427H18.6899C20.4868 22.0427 21.9574 20.572 21.9574 18.7751V10.6489C21.9574 8.85199 20.4868 7.38135 18.6899 7.38135ZM20.6072 18.0222C20.6072 19.4828 19.4076 20.6825 17.947 20.6825H11.3969C9.93125 20.6825 8.73665 19.4828 8.73665 18.0222V11.4068C8.73665 9.94119 9.93125 8.74659 11.3969 8.74659H17.947C19.4076 8.74659 20.6072 9.94119 20.6072 11.4068V18.0222ZM14.6694 11.0955C12.6768 11.0955 11.0555 12.7217 11.0555 14.7144C11.0555 16.707 12.6768 18.3282 14.6694 18.3282C16.6621 18.3282 18.2884 16.707 18.2884 14.7144C18.2884 12.7217 16.6621 11.0955 14.6694 11.0955ZM14.6694 17.1086C13.3494 17.1086 12.2752 16.0344 12.2752 14.7144C12.2752 13.3943 13.3494 12.3202 14.6694 12.3202C15.9895 12.3202 17.0637 13.3943 17.0637 14.7144C17.0637 16.0344 15.9895 17.1086 14.6694 17.1086ZM19.0339 10.7075C19.0339 11.114 18.7026 11.4453 18.2911 11.4453C17.8845 11.4453 17.5532 11.114 17.5532 10.7075C17.5532 10.2959 17.8845 9.9646 18.2911 9.9646C18.7027 9.9646 19.0339 10.2959 19.0339 10.7075Z" fill="#666666"/>
</svg>
