<svg width="29" height="29" viewBox="0 0 29 29" fill="none" xmlns="http://www.w3.org/2000/svg">
<path fill-rule="evenodd" clip-rule="evenodd" d="M14.5 29C22.5081 29 29 22.5081 29 14.5C29 6.49187 22.5081 0 14.5 0C6.49187 0 0 6.49187 0 14.5C0 22.5081 6.49187 29 14.5 29ZM9.21953 7.41667C8.20668 7.41667 7.34938 8.20459 7.42084 9.21701C7.87883 15.7054 13.2973 21.1195 19.7577 21.5792C20.768 21.651 21.5833 20.8275 21.5833 19.8125V17.6335C21.5833 17.1125 21.2707 16.6426 20.7908 16.4422L18.6149 15.5337C18.0848 15.3125 17.4726 15.4695 17.1139 15.9188L16.525 16.6565C16.3075 16.9289 15.9223 17.0049 15.6308 16.8139C14.2495 15.9087 13.1137 14.6587 12.3452 13.1859C12.1957 12.8993 12.2814 12.5507 12.5336 12.3485L13.0988 11.8954C13.5472 11.5359 13.7039 10.9224 13.483 10.3913L12.5764 8.21085C12.3765 7.72993 11.9075 7.41667 11.3876 7.41667H9.21953Z" fill="#666666"/>
</svg>
