<svg width="29" height="29" viewBox="0 0 29 29" fill="none" xmlns="http://www.w3.org/2000/svg">
<path fill-rule="evenodd" clip-rule="evenodd" d="M14.5 29C22.5081 29 29 22.5081 29 14.5C29 6.49187 22.5081 0 14.5 0C6.49187 0 0 6.49187 0 14.5C0 22.5081 6.49187 29 14.5 29ZM15.2071 24.7071L21.5711 18.3431C21.9616 17.9526 21.9616 17.3195 21.5711 16.9289C21.1805 16.5384 20.5474 16.5384 20.1569 16.9289L15.5 21.5858L15.5 5C15.5 4.44772 15.0523 4 14.5 4C13.9477 4 13.5 4.44772 13.5 5L13.5 21.5858L8.84315 16.9289C8.45262 16.5384 7.81946 16.5384 7.42893 16.9289C7.03841 17.3195 7.03841 17.9526 7.42893 18.3431L13.7929 24.7071C14.1834 25.0976 14.8166 25.0976 15.2071 24.7071Z" fill="#666666"/>
</svg>
